<?xml version="1.0" encoding="UTF-8"?>
<!-- Generator: Adobe Illustrator 21.1.0, SVG Export Plug-In . SVG Version: 6.00 Build 0)  -->
<svg version="1.1" id="svg2" inkscape:version="0.48.2 r9819" sodipodi:docname="Diatomic_molecules_periodic_table-02.svg" xmlns:cc="http://creativecommons.org/ns#" xmlns:dc="http://purl.org/dc/elements/1.1/" xmlns:inkscape="http://www.inkscape.org/namespaces/inkscape" xmlns:rdf="http://www.w3.org/1999/02/22-rdf-syntax-ns#" xmlns:sodipodi="http://sodipodi.sourceforge.net/DTD/sodipodi-0.dtd" xmlns:svg="http://www.w3.org/2000/svg" xmlns="http://www.w3.org/2000/svg" xmlns:xlink="http://www.w3.org/1999/xlink" x="0px" y="0px" viewBox="0 0 800 450" style="enable-background:new 0 0 800 450;" xml:space="preserve">
<style type="text/css">
	.st0{fill:#FFFFFF;}
	.st1{fill:#FFFFFF;stroke:#000000;}
	.st2{fill:#E7FF8F;stroke:#000000;}
	.st3{font-family:'ArialMT';}
	.st4{font-size:12px;}
	.st5{font-size:14px;}
</style>
<sodipodi:namedview bordercolor="#666666" borderopacity="1" gridtolerance="10" guidetolerance="10" id="namedview799" inkscape:current-layer="g4" inkscape:cx="400" inkscape:cy="225" inkscape:guide-bbox="true" inkscape:pageopacity="0" inkscape:pageshadow="2" inkscape:window-height="719" inkscape:window-maximized="1" inkscape:window-width="1024" inkscape:window-x="-4" inkscape:window-y="-4" inkscape:zoom="1.1111111" objecttolerance="10" pagecolor="#ffffff" showgrid="false" showguides="true">
	</sodipodi:namedview>
<g id="g4" transform="translate(-.5,-56.5)">
	<g id="g3620">
		<path id="path6" class="st0" d="M144,387v-36h36v36H144z"/>
		<path id="path8" class="st0" d="M144,347v-36h36v36H144z"/>
		<g id="Unclass" transform="translate(384,387)">
			<path id="path13" inkscape:connector-curvature="0" class="st1" d="M0,0v-36h36V0H0z"/>
			<path id="path15" inkscape:connector-curvature="0" class="st1" d="M40,0v-36h36V0H40z"/>
			<path id="path17" inkscape:connector-curvature="0" class="st1" d="M80,0v-36h36V0H80z"/>
			<path id="path19" inkscape:connector-curvature="0" class="st1" d="M160,0v-36h36V0H160z"/>
			<path id="path21" inkscape:connector-curvature="0" class="st1" d="M200,0v-36h36V0H200z"/>
			<path id="path23" inkscape:connector-curvature="0" class="st1" d="M240,0v-36h36V0H240z"/>
			<path id="path25" inkscape:connector-curvature="0" class="st1" d="M280,0v-36h36V0H280z"/>
			<path id="path27" inkscape:connector-curvature="0" class="st1" d="M320,0v-36h36V0H320z"/>
			<path id="path29" inkscape:connector-curvature="0" class="st1" d="M360,0v-36h36V0H360z"/>
		</g>
		<path id="path32" inkscape:connector-curvature="0" class="st2" d="M64,147v-36h36v36H64z"/>
		<path id="path34" inkscape:connector-curvature="0" class="st1" d="M664,267v-36h36v36H664z"/>
		<path id="path36" inkscape:connector-curvature="0" class="st1" d="M624,227v-36h36v36H624z"/>
		<path id="path38" inkscape:connector-curvature="0" class="st1" d="M664,227v-36h36v36H664z"/>
		<path id="path40" inkscape:connector-curvature="0" class="st1" d="M584,187v-36h36v36H584z"/>
		<path id="path42" inkscape:connector-curvature="0" class="st2" d="M624,187v-36h36v36H624z"/>
		<path id="path44" inkscape:connector-curvature="0" class="st2" d="M664,187v-36h36v36H664z"/>
		<g id="AlkaliMetals" transform="translate(64,0)">
			<path id="path47" inkscape:connector-curvature="0" class="st1" d="M0,387v-36h36v36H0z"/>
			<path id="path49" inkscape:connector-curvature="0" class="st1" d="M0,347v-36h36v36H0z"/>
			<path id="path51" inkscape:connector-curvature="0" class="st1" d="M0,267v-36h36v36H0z"/>
			<path id="path53" inkscape:connector-curvature="0" class="st1" d="M0,227v-36h36v36H0z"/>
			<path id="path55" inkscape:connector-curvature="0" class="st1" d="M0,187v-36h36v36H0z"/>
			<path id="path57" inkscape:connector-curvature="0" class="st1" d="M0,307v-36h36v36H0z"/>
		</g>
		<g id="EarthMetals" transform="translate(104,187)">
			<path id="path60" inkscape:connector-curvature="0" class="st1" d="M0,0v-36h36V0H0z"/>
			<path id="path62" inkscape:connector-curvature="0" class="st1" d="M0,40V4h36v36H0z"/>
			<path id="path64" inkscape:connector-curvature="0" class="st1" d="M0,80V44h36v36H0z"/>
			<path id="path66" inkscape:connector-curvature="0" class="st1" d="M0,120V84h36v36H0z"/>
			<path id="path68" inkscape:connector-curvature="0" class="st1" d="M0,160v-36h36v36H0z"/>
			<path id="path70" inkscape:connector-curvature="0" class="st1" d="M0,200v-36h36v36H0z"/>
		</g>
		<g id="SemiMetals">
			<path id="path73" inkscape:connector-curvature="0" class="st1" d="M544,187v-36h36v36H544z"/>
			<path id="path75" inkscape:connector-curvature="0" class="st1" d="M584,227v-36h36v36H584z"/>
			<path id="path77" inkscape:connector-curvature="0" class="st1" d="M584,267v-36h36v36H584z"/>
			<path id="path79" inkscape:connector-curvature="0" class="st1" d="M624,267v-36h36v36H624z"/>
			<path id="path81" inkscape:connector-curvature="0" class="st1" d="M624,307v-36h36v36H624z"/>
			<path id="path83" inkscape:connector-curvature="0" class="st1" d="M664,307v-36h36v36H664z"/>
			<path id="path85" inkscape:connector-curvature="0" class="st1" d="M664,347v-36h36v36H664z"/>
		</g>
		<path id="path88" inkscape:connector-curvature="0" class="st2" d="M704,187v-36h36v36H704z"/>
		<path id="path90" inkscape:connector-curvature="0" class="st2" d="M704,227v-36h36v36H704z"/>
		<path id="path92" inkscape:connector-curvature="0" class="st2" d="M704,267v-36h36v36H704z"/>
		<path id="path94" inkscape:connector-curvature="0" class="st2" d="M704,307v-36h36v36H704z"/>
		<path id="path96" inkscape:connector-curvature="0" class="st1" d="M704,347v-36h36v36H704z"/>
		<g id="InertGases" transform="translate(744,147)">
			<path id="path99" inkscape:connector-curvature="0" class="st1" d="M0,0v-36h36V0H0z"/>
			<path id="path101" inkscape:connector-curvature="0" class="st1" d="M0,40V4h36v36H0z"/>
			<path id="path103" inkscape:connector-curvature="0" class="st1" d="M0,80V44h36v36H0z"/>
			<path id="path105" inkscape:connector-curvature="0" class="st1" d="M0,120V84h36v36H0z"/>
			<path id="path107" inkscape:connector-curvature="0" class="st1" d="M0,160v-36h36v36H0z"/>
			<path id="path109" inkscape:connector-curvature="0" class="st1" d="M0,200v-36h36v36H0z"/>
		</g>
		<g id="PTMetals">
			<path id="path112" inkscape:connector-curvature="0" class="st1" d="M544,227v-36h36v36H544z"/>
			<path id="path114" inkscape:connector-curvature="0" class="st1" d="M544,267v-36h36v36H544z"/>
			<path id="path116" inkscape:connector-curvature="0" class="st1" d="M544,307v-36h36v36H544z"/>
			<path id="path118" inkscape:connector-curvature="0" class="st1" d="M544,347v-36h36v36H544z"/>
			<path id="path120" inkscape:connector-curvature="0" class="st1" d="M584,307v-36h36v36H584z"/>
			<path id="path122" inkscape:connector-curvature="0" class="st1" d="M584,347v-36h36v36H584z"/>
			<path id="path124" inkscape:connector-curvature="0" class="st1" d="M624,347v-36h36v36H624z"/>
		</g>
		<g id="TransMetals" transform="translate(184,267)">
			<path id="path127" inkscape:connector-curvature="0" class="st1" d="M0,120V84h36v36H0z"/>
			<path id="path129" inkscape:connector-curvature="0" class="st1" d="M40,120V84h36v36H40z"/>
			<path id="path131" inkscape:connector-curvature="0" class="st1" d="M80,120V84h36v36H80z"/>
			<path id="path133" inkscape:connector-curvature="0" class="st1" d="M120,120V84h36v36H120z"/>
			<path id="path135" inkscape:connector-curvature="0" class="st1" d="M160,120V84h36v36H160z"/>
			<path id="path137" inkscape:connector-curvature="0" class="st1" d="M320,120V84h36v36H320z"/>
			<path id="path139" inkscape:connector-curvature="0" class="st1" d="M0,80V44h36v36H0z"/>
			<path id="path141" inkscape:connector-curvature="0" class="st1" d="M40,80V44h36v36H40z"/>
			<path id="path143" inkscape:connector-curvature="0" class="st1" d="M80,80V44h36v36H80z"/>
			<path id="path145" inkscape:connector-curvature="0" class="st1" d="M120,80V44h36v36H120z"/>
			<path id="path147" inkscape:connector-curvature="0" class="st1" d="M160,80V44h36v36H160z"/>
			<path id="path149" inkscape:connector-curvature="0" class="st1" d="M200,80V44h36v36H200z"/>
			<path id="path151" inkscape:connector-curvature="0" class="st1" d="M240,80V44h36v36H240z"/>
			<path id="path153" inkscape:connector-curvature="0" class="st1" d="M280,80V44h36v36H280z"/>
			<path id="path155" inkscape:connector-curvature="0" class="st1" d="M320,80V44h36v36H320z"/>
			<path id="path157" inkscape:connector-curvature="0" class="st1" d="M-40,40V4h36v36H-40z"/>
			<path id="path159" inkscape:connector-curvature="0" class="st1" d="M0,40V4h36v36H0z"/>
			<path id="path161" inkscape:connector-curvature="0" class="st1" d="M40,40V4h36v36H40z"/>
			<path id="path163" inkscape:connector-curvature="0" class="st1" d="M80,40V4h36v36H80z"/>
			<path id="path165" inkscape:connector-curvature="0" class="st1" d="M120,40V4h36v36H120z"/>
			<path id="path167" inkscape:connector-curvature="0" class="st1" d="M160,40V4h36v36H160z"/>
			<path id="path169" inkscape:connector-curvature="0" class="st1" d="M200,40V4h36v36H200z"/>
			<path id="path171" inkscape:connector-curvature="0" class="st1" d="M240,40V4h36v36H240z"/>
			<path id="path173" inkscape:connector-curvature="0" class="st1" d="M280,40V4h36v36H280z"/>
			<path id="path175" inkscape:connector-curvature="0" class="st1" d="M320,40V4h36v36H320z"/>
			<path id="path177" inkscape:connector-curvature="0" class="st1" d="M-40,0v-36h36V0H-40z"/>
			<path id="path179" inkscape:connector-curvature="0" class="st1" d="M0,0v-36h36V0H0z"/>
			<path id="path181" inkscape:connector-curvature="0" class="st1" d="M40,0v-36h36V0H40z"/>
			<path id="path183" inkscape:connector-curvature="0" class="st1" d="M80,0v-36h36V0H80z"/>
			<path id="path185" inkscape:connector-curvature="0" class="st1" d="M120,0v-36h36V0H120z"/>
			<path id="path187" inkscape:connector-curvature="0" class="st1" d="M160,0v-36h36V0H160z"/>
			<path id="path189" inkscape:connector-curvature="0" class="st1" d="M200,0v-36h36V0H200z"/>
			<path id="path191" inkscape:connector-curvature="0" class="st1" d="M240,0v-36h36V0H240z"/>
			<path id="path193" inkscape:connector-curvature="0" class="st1" d="M280,0v-36h36V0H280z"/>
			<path id="path195" inkscape:connector-curvature="0" class="st1" d="M320,0v-36h36V0H320z"/>
		</g>
		<g id="Lanths" transform="translate(143.6,447)">
			<path id="path198" inkscape:connector-curvature="0" class="st1" d="M0,0v-36h36V0H0z"/>
			<path id="path200" inkscape:connector-curvature="0" class="st1" d="M40,0v-36h36V0H40z"/>
			<path id="path202" inkscape:connector-curvature="0" class="st1" d="M80,0v-36h36V0H80z"/>
			<path id="path204" inkscape:connector-curvature="0" class="st1" d="M120,0v-36h36V0H120z"/>
			<path id="path206" inkscape:connector-curvature="0" class="st1" d="M160,0v-36h36V0H160z"/>
			<path id="path208" inkscape:connector-curvature="0" class="st1" d="M200,0v-36h36V0H200z"/>
			<path id="path210" inkscape:connector-curvature="0" class="st1" d="M240,0v-36h36V0H240z"/>
			<path id="path212" inkscape:connector-curvature="0" class="st1" d="M280,0v-36h36V0H280z"/>
			<path id="path214" inkscape:connector-curvature="0" class="st1" d="M320,0v-36h36V0H320z"/>
			<path id="path216" inkscape:connector-curvature="0" class="st1" d="M360,0v-36h36V0H360z"/>
			<path id="path218" inkscape:connector-curvature="0" class="st1" d="M400,0v-36h36V0H400z"/>
			<path id="path220" inkscape:connector-curvature="0" class="st1" d="M440,0v-36h36V0H440z"/>
			<path id="path222" inkscape:connector-curvature="0" class="st1" d="M480,0v-36h36V0H480z"/>
			<path id="path224" inkscape:connector-curvature="0" class="st1" d="M520,0v-36h36V0H520z"/>
			<path id="path226" inkscape:connector-curvature="0" class="st1" d="M560,0v-36h36V0H560z"/>
		</g>
		<g id="Actins" transform="translate(143.6,487)">
			<path id="path229" inkscape:connector-curvature="0" class="st1" d="M0,0v-36h36V0H0z"/>
			<path id="path231" inkscape:connector-curvature="0" class="st1" d="M40,0v-36h36V0H40z"/>
			<path id="path233" inkscape:connector-curvature="0" class="st1" d="M80,0v-36h36V0H80z"/>
			<path id="path235" inkscape:connector-curvature="0" class="st1" d="M120,0v-36h36V0H120z"/>
			<path id="path237" inkscape:connector-curvature="0" class="st1" d="M160,0v-36h36V0H160z"/>
			<path id="path239" inkscape:connector-curvature="0" class="st1" d="M200,0v-36h36V0H200z"/>
			<path id="path241" inkscape:connector-curvature="0" class="st1" d="M240,0v-36h36V0H240z"/>
			<path id="path243" inkscape:connector-curvature="0" class="st1" d="M280,0v-36h36V0H280z"/>
			<path id="path245" inkscape:connector-curvature="0" class="st1" d="M320,0v-36h36V0H320z"/>
			<path id="path247" inkscape:connector-curvature="0" class="st1" d="M360,0v-36h36V0H360z"/>
			<path id="path249" inkscape:connector-curvature="0" class="st1" d="M400,0v-36h36V0H400z"/>
			<path id="path251" inkscape:connector-curvature="0" class="st1" d="M440,0v-36h36V0H440z"/>
			<path id="path253" inkscape:connector-curvature="0" class="st1" d="M480,0v-36h36V0H480z"/>
			<path id="path255" inkscape:connector-curvature="0" class="st1" d="M520,0v-36h36V0H520z"/>
			<path id="path257" inkscape:connector-curvature="0" class="st1" d="M560,0v-36h36V0H560z"/>
		</g>
		<text id="text261" transform="matrix(1 0 0 1 77.6631 94)" class="st3 st4">1</text>
		<text id="text263" transform="matrix(1 0 0 1 117.6631 94)" class="st3 st4">2</text>
		<text id="text265" transform="matrix(1 0 0 1 157.6631 94)" class="st3 st4">3</text>
		<text id="text267" transform="matrix(1 0 0 1 197.6631 94)" class="st3 st4">4</text>
		<text id="text269" transform="matrix(1 0 0 1 237.6631 94)" class="st3 st4">5</text>
		<text id="text271" transform="matrix(1 0 0 1 277.6631 94)" class="st3 st4">6</text>
		<text id="text273" transform="matrix(1 0 0 1 317.6631 94)" class="st3 st4">7</text>
		<text id="text275" transform="matrix(1 0 0 1 357.6631 94)" class="st3 st4">8</text>
		<text id="text277" transform="matrix(1 0 0 1 397.6631 94)" class="st3 st4">9</text>
		<text id="text279" transform="matrix(1 0 0 1 434.3262 94)" class="st3 st4">10</text>
		<text id="text281" transform="matrix(1 0 0 1 474.7715 94)" class="st3 st4">11</text>
		<text id="text283" transform="matrix(1 0 0 1 514.3262 94)" class="st3 st4">12</text>
		<text id="text285" transform="matrix(1 0 0 1 554.3262 94)" class="st3 st4">13</text>
		<text id="text287" transform="matrix(1 0 0 1 594.3262 94)" class="st3 st4">14</text>
		<text id="text289" transform="matrix(1 0 0 1 634.3262 94)" class="st3 st4">15</text>
		<text id="text291" transform="matrix(1 0 0 1 674.3262 94)" class="st3 st4">16</text>
		<text id="text293" transform="matrix(1 0 0 1 714.3262 94)" class="st3 st4">17</text>
		<text id="text295" transform="matrix(1 0 0 1 754.3262 94)" class="st3 st4">18</text>
		<text id="text297" transform="matrix(1 0 0 1 38.6631 134)" class="st3 st4">1</text>
		<text id="text299" transform="matrix(1 0 0 1 38.6631 174)" class="st3 st4">2</text>
		<text id="text301" transform="matrix(1 0 0 1 38.6631 214)" class="st3 st4">3</text>
		<text id="text303" transform="matrix(1 0 0 1 38.6631 254)" class="st3 st4">4</text>
		<text id="text305" transform="matrix(1 0 0 1 38.6631 294)" class="st3 st4">5</text>
		<text id="text307" transform="matrix(1 0 0 1 38.6631 334)" class="st3 st4">6</text>
		<text id="text309" transform="matrix(1 0 0 1 38.6631 374)" class="st3 st4">7</text>
		<text id="text313" transform="matrix(1 0 0 1 758.6631 125)" class="st3 st4">2</text>
		<text id="text315" transform="matrix(1 0 0 1 78.6631 125)" class="st3 st4">1</text>
		<text id="text317" transform="matrix(1 0 0 1 754.3301 141)" class="st3 st4">He</text>
		<text id="text319" transform="matrix(1 0 0 1 77.667 141)" class="st3 st4">H</text>
		<text id="text321" transform="matrix(1 0 0 1 118.6631 165)" class="st3 st4">4</text>
		<text id="text323" transform="matrix(1 0 0 1 558.6631 165)" class="st3 st4">5</text>
		<text id="text325" transform="matrix(1 0 0 1 598.6631 165)" class="st3 st4">6</text>
		<text id="text327" transform="matrix(1 0 0 1 638.6631 165)" class="st3 st4">7</text>
		<text id="text329" transform="matrix(1 0 0 1 678.6631 165)" class="st3 st4">8</text>
		<text id="text331" transform="matrix(1 0 0 1 718.6631 165)" class="st3 st4">9</text>
		<text id="text333" transform="matrix(1 0 0 1 755.3262 165)" class="st3 st4">10</text>
		<text id="text335" transform="matrix(1 0 0 1 78.6631 165)" class="st3 st4">3</text>
		<text id="text337" transform="matrix(1 0 0 1 114.6611 181)" class="st3 st4">Be</text>
		<text id="text339" transform="matrix(1 0 0 1 557.998 181)" class="st3 st4">B</text>
		<text id="text341" transform="matrix(1 0 0 1 597.667 181)" class="st3 st4">C</text>
		<text id="text343" transform="matrix(1 0 0 1 637.667 181)" class="st3 st4">N</text>
		<text id="text345" transform="matrix(1 0 0 1 677.333 181)" class="st3 st4">O</text>
		<text id="text347" transform="matrix(1 0 0 1 718.335 181)" class="st3 st4">F</text>
		<text id="text349" transform="matrix(1 0 0 1 754.3301 181)" class="st3 st4">Ne</text>
		<text id="text351" transform="matrix(1 0 0 1 77.3301 181)" class="st3 st4">Li</text>
		<text id="text353" transform="matrix(1 0 0 1 115.3262 205)" class="st3 st4">12</text>
		<text id="text355" transform="matrix(1 0 0 1 555.3262 205)" class="st3 st4">13</text>
		<text id="text357" transform="matrix(1 0 0 1 595.3262 205)" class="st3 st4">14</text>
		<text id="text359" transform="matrix(1 0 0 1 635.3262 205)" class="st3 st4">15</text>
		<text id="text361" transform="matrix(1 0 0 1 675.3262 205)" class="st3 st4">16</text>
		<text id="text363" transform="matrix(1 0 0 1 715.3262 205)" class="st3 st4">17</text>
		<text id="text365" transform="matrix(1 0 0 1 755.3262 205)" class="st3 st4">18</text>
		<text id="text367" transform="matrix(1 0 0 1 75.7715 205)" class="st3 st4">11</text>
		<text id="text369" transform="matrix(1 0 0 1 113.665 221)" class="st3 st4">Mg</text>
		<text id="text371" transform="matrix(1 0 0 1 556.665 221)" class="st3 st4">Al</text>
		<text id="text373" transform="matrix(1 0 0 1 596.665 221)" class="st3 st4">Si</text>
		<text id="text375" transform="matrix(1 0 0 1 637.998 221)" class="st3 st4">P</text>
		<text id="text377" transform="matrix(1 0 0 1 677.998 221)" class="st3 st4">S</text>
		<text id="text379" transform="matrix(1 0 0 1 716.334 221)" class="st3 st4">Cl</text>
		<text id="text381" transform="matrix(1 0 0 1 756 221)" class="st3 st4">Ar</text>
		<text id="text383" transform="matrix(1 0 0 1 74.3301 221)" class="st3 st4">Na</text>
		<text id="text385" transform="matrix(1 0 0 1 115.3262 245)" class="st3 st4">20</text>
		<text id="text387" transform="matrix(1 0 0 1 155.3262 245)" class="st3 st4">21</text>
		<text id="text389" transform="matrix(1 0 0 1 195.3262 245)" class="st3 st4">22</text>
		<text id="text391" transform="matrix(1 0 0 1 235.3262 245)" class="st3 st4">23</text>
		<text id="text393" transform="matrix(1 0 0 1 275.3262 245)" class="st3 st4">24</text>
		<text id="text395" transform="matrix(1 0 0 1 315.3262 245)" class="st3 st4">25</text>
		<text id="text397" transform="matrix(1 0 0 1 355.3262 245)" class="st3 st4">26</text>
		<text id="text399" transform="matrix(1 0 0 1 395.3262 245)" class="st3 st4">27</text>
		<text id="text401" transform="matrix(1 0 0 1 435.3262 245)" class="st3 st4">28</text>
		<text id="text403" transform="matrix(1 0 0 1 475.3262 245)" class="st3 st4">29</text>
		<text id="text405" transform="matrix(1 0 0 1 515.3262 245)" class="st3 st4">30</text>
		<text id="text407" transform="matrix(1 0 0 1 555.3262 245)" class="st3 st4">31</text>
		<text id="text409" transform="matrix(1 0 0 1 595.3262 245)" class="st3 st4">32</text>
		<text id="text411" transform="matrix(1 0 0 1 635.3262 245)" class="st3 st4">33</text>
		<text id="text413" transform="matrix(1 0 0 1 675.3262 245)" class="st3 st4">34</text>
		<text id="text415" transform="matrix(1 0 0 1 715.3262 245)" class="st3 st4">35</text>
		<text id="text417" transform="matrix(1 0 0 1 755.3262 245)" class="st3 st4">36</text>
		<text id="text419" transform="matrix(1 0 0 1 75.3262 245)" class="st3 st4">19</text>
		<text id="text421" transform="matrix(1 0 0 1 114.3301 261)" class="st3 st4">Ca</text>
		<text id="text423" transform="matrix(1 0 0 1 154.998 261)" class="st3 st4">Sc</text>
		<text id="text425" transform="matrix(1 0 0 1 197.2246 261)" class="st3 st4">Ti</text>
		<text id="text427" transform="matrix(1 0 0 1 237.998 261)" class="st3 st4">V</text>
		<text id="text429" transform="matrix(1 0 0 1 275.6689 261)" class="st3 st4">Cr</text>
		<text id="text431" transform="matrix(1 0 0 1 313.665 261)" class="st3 st4">Mn</text>
		<text id="text433" transform="matrix(1 0 0 1 354.998 261)" class="st3 st4">Fe</text>
		<text id="text435" transform="matrix(1 0 0 1 394.3301 261)" class="st3 st4">Co</text>
		<text id="text437" transform="matrix(1 0 0 1 436.334 261)" class="st3 st4">Ni</text>
		<text id="text439" transform="matrix(1 0 0 1 474.3301 261)" class="st3 st4">Cu</text>
		<text id="text441" transform="matrix(1 0 0 1 514.998 261)" class="st3 st4">Zn</text>
		<text id="text443" transform="matrix(1 0 0 1 553.9961 261)" class="st3 st4">Ga</text>
		<text id="text445" transform="matrix(1 0 0 1 593.9961 261)" class="st3 st4">Ge</text>
		<text id="text447" transform="matrix(1 0 0 1 634.998 261)" class="st3 st4">As</text>
		<text id="text449" transform="matrix(1 0 0 1 674.6611 261)" class="st3 st4">Se</text>
		<text id="text451" transform="matrix(1 0 0 1 716 261)" class="st3 st4">Br</text>
		<text id="text453" transform="matrix(1 0 0 1 756 261)" class="st3 st4">Kr</text>
		<text id="text455" transform="matrix(1 0 0 1 77.998 261)" class="st3 st4">K</text>
		<text id="text457" transform="matrix(1 0 0 1 115.3262 285)" class="st3 st4">38</text>
		<text id="text459" transform="matrix(1 0 0 1 155.3262 285)" class="st3 st4">39</text>
		<text id="text461" transform="matrix(1 0 0 1 195.3262 285)" class="st3 st4">40</text>
		<text id="text463" transform="matrix(1 0 0 1 235.3262 285)" class="st3 st4">41</text>
		<text id="text465" transform="matrix(1 0 0 1 275.3262 285)" class="st3 st4">42</text>
		<text id="text467" transform="matrix(1 0 0 1 315.3262 285)" class="st3 st4">43</text>
		<text id="text469" transform="matrix(1 0 0 1 355.3262 285)" class="st3 st4">44</text>
		<text id="text471" transform="matrix(1 0 0 1 395.3262 285)" class="st3 st4">45</text>
		<text id="text473" transform="matrix(1 0 0 1 435.3262 285)" class="st3 st4">46</text>
		<text id="text475" transform="matrix(1 0 0 1 475.3262 285)" class="st3 st4">47</text>
		<text id="text477" transform="matrix(1 0 0 1 515.3262 285)" class="st3 st4">48</text>
		<text id="text479" transform="matrix(1 0 0 1 555.3262 285)" class="st3 st4">49</text>
		<text id="text481" transform="matrix(1 0 0 1 595.3262 285)" class="st3 st4">50</text>
		<text id="text483" transform="matrix(1 0 0 1 635.3262 285)" class="st3 st4">51</text>
		<text id="text485" transform="matrix(1 0 0 1 675.3262 285)" class="st3 st4">52</text>
		<text id="text487" transform="matrix(1 0 0 1 715.3262 285)" class="st3 st4">53</text>
		<text id="text489" transform="matrix(1 0 0 1 755.3262 285)" class="st3 st4">54</text>
		<text id="text491" transform="matrix(1 0 0 1 75.3262 285)" class="st3 st4">37</text>
		<text id="text493" transform="matrix(1 0 0 1 474.6611 301)" class="st3 st4">Ag</text>
		<text id="text495" transform="matrix(1 0 0 1 116 301)" class="st3 st4">Sr</text>
		<text id="text497" transform="matrix(1 0 0 1 157.998 301)" class="st3 st4">Y</text>
		<text id="text499" transform="matrix(1 0 0 1 196.3369 301)" class="st3 st4">Zr</text>
		<text id="text501" transform="matrix(1 0 0 1 234.3301 301)" class="st3 st4">Nb</text>
		<text id="text503" transform="matrix(1 0 0 1 273.665 301)" class="st3 st4">Mo</text>
		<text id="text505" transform="matrix(1 0 0 1 316 301)" class="st3 st4">Tc</text>
		<text id="text507" transform="matrix(1 0 0 1 354.3301 301)" class="st3 st4">Ru</text>
		<text id="text509" transform="matrix(1 0 0 1 394.3301 301)" class="st3 st4">Rh</text>
		<text id="text511" transform="matrix(1 0 0 1 434.6611 301)" class="st3 st4">Pd</text>
		<text id="text513" transform="matrix(1 0 0 1 514.3301 301)" class="st3 st4">Cd</text>
		<text id="text515" transform="matrix(1 0 0 1 556.9961 301)" class="st3 st4">In</text>
		<text id="text517" transform="matrix(1 0 0 1 594.6611 301)" class="st3 st4">Sn</text>
		<text id="text519" transform="matrix(1 0 0 1 634.6611 301)" class="st3 st4">Sb</text>
		<text id="text521" transform="matrix(1 0 0 1 675.6631 301)" class="st3 st4">Te</text>
		<text id="text523" transform="matrix(1 0 0 1 720.333 301)" class="st3 st4">I</text>
		<text id="text525" transform="matrix(1 0 0 1 754.6611 301)" class="st3 st4">Xe</text>
		<text id="text527" transform="matrix(1 0 0 1 74.3301 301)" class="st3 st4">Rb</text>
		<text id="text529" transform="matrix(1 0 0 1 115.3262 325)" class="st3 st4">56</text>
		<text id="text531" transform="matrix(1 0 0 1 195.3262 325)" class="st3 st4">72</text>
		<text id="text533" transform="matrix(1 0 0 1 235.3262 325)" class="st3 st4">73</text>
		<text id="text535" transform="matrix(1 0 0 1 275.3262 325)" class="st3 st4">74</text>
		<text id="text537" transform="matrix(1 0 0 1 315.3262 325)" class="st3 st4">75</text>
		<text id="text539" transform="matrix(1 0 0 1 355.3262 325)" class="st3 st4">76</text>
		<text id="text541" transform="matrix(1 0 0 1 395.3262 325)" class="st3 st4">77</text>
		<text id="text543" transform="matrix(1 0 0 1 435.3262 325)" class="st3 st4">78</text>
		<text id="text545" transform="matrix(1 0 0 1 475.3262 325)" class="st3 st4">79</text>
		<text id="text547" transform="matrix(1 0 0 1 515.3262 325)" class="st3 st4">80</text>
		<text id="text549" transform="matrix(1 0 0 1 555.3262 325)" class="st3 st4">81</text>
		<text id="text551" transform="matrix(1 0 0 1 595.3262 325)" class="st3 st4">82</text>
		<text id="text553" transform="matrix(1 0 0 1 635.3262 325)" class="st3 st4">83</text>
		<text id="text555" transform="matrix(1 0 0 1 675.3262 325)" class="st3 st4">84</text>
		<text id="text557" transform="matrix(1 0 0 1 715.3262 325)" class="st3 st4">85</text>
		<text id="text559" transform="matrix(1 0 0 1 755.3262 325)" class="st3 st4">86</text>
		<text id="text561" transform="matrix(1 0 0 1 75.3262 325)" class="st3 st4">55</text>
		<text id="text563" transform="matrix(1 0 0 1 114.6611 341)" class="st3 st4">Ba</text>
		<text id="text565" transform="matrix(1 0 0 1 196 341)" class="st3 st4">Hf</text>
		<text id="text567" transform="matrix(1 0 0 1 235.6631 341)" class="st3 st4">Ta</text>
		<text id="text569" transform="matrix(1 0 0 1 276.3369 341)" class="st3 st4">W</text>
		<text id="text571" transform="matrix(1 0 0 1 314.3301 341)" class="st3 st4">Re</text>
		<text id="text573" transform="matrix(1 0 0 1 354.333 341)" class="st3 st4">Os</text>
		<text id="text575" transform="matrix(1 0 0 1 398.335 341)" class="st3 st4">Ir</text>
		<text id="text577" transform="matrix(1 0 0 1 436.3311 341)" class="st3 st4">Pt</text>
		<text id="text579" transform="matrix(1 0 0 1 474.6611 341)" class="st3 st4">Au</text>
		<text id="text581" transform="matrix(1 0 0 1 514.3301 341)" class="st3 st4">Hg</text>
		<text id="text583" transform="matrix(1 0 0 1 557.002 341)" class="st3 st4">Tl</text>
		<text id="text585" transform="matrix(1 0 0 1 594.6611 341)" class="st3 st4">Pb</text>
		<text id="text587" transform="matrix(1 0 0 1 636.665 341)" class="st3 st4">Bi</text>
		<text id="text589" transform="matrix(1 0 0 1 674.6611 341)" class="st3 st4">Po</text>
		<text id="text591" transform="matrix(1 0 0 1 716.3311 341)" class="st3 st4">At</text>
		<text id="text593" transform="matrix(1 0 0 1 754.3301 341)" class="st3 st4">Rn</text>
		<text id="text595" transform="matrix(1 0 0 1 74.667 341)" class="st3 st4">Cs</text>
		<text id="text597" transform="matrix(1 0 0 1 115.3262 365)" class="st3 st4">88</text>
		<text id="text599" transform="matrix(1 0 0 1 191.9893 365)" class="st3 st4">104</text>
		<text id="text601" transform="matrix(1 0 0 1 231.9893 365)" class="st3 st4">105</text>
		<text id="text603" transform="matrix(1 0 0 1 271.9893 365)" class="st3 st4">106</text>
		<text id="text605" transform="matrix(1 0 0 1 311.9893 365)" class="st3 st4">107</text>
		<text id="text607" transform="matrix(1 0 0 1 351.9893 365)" class="st3 st4">108</text>
		<text id="text609" transform="matrix(1 0 0 1 391.9893 365)" class="st3 st4">109</text>
		<text id="text611" transform="matrix(1 0 0 1 432.4346 365)" class="st3 st4">110</text>
		<text id="text613" transform="matrix(1 0 0 1 472.8799 365)" class="st3 st4">111</text>
		<text id="text615" transform="matrix(1 0 0 1 512.4346 365)" class="st3 st4">112</text>
		<text id="text617" transform="matrix(1 0 0 1 552.4346 365)" class="st3 st4">113</text>
		<text id="text619" transform="matrix(1 0 0 1 592.4346 365)" class="st3 st4">114</text>
		<text id="text621" transform="matrix(1 0 0 1 632.4346 365)" class="st3 st4">115</text>
		<text id="text623" transform="matrix(1 0 0 1 672.4346 365)" class="st3 st4">116</text>
		<text id="text625" transform="matrix(1 0 0 1 712.4346 365)" class="st3 st4">117</text>
		<text id="text627" transform="matrix(1 0 0 1 752.4346 365)" class="st3 st4">118</text>
		<text id="text629" transform="matrix(1 0 0 1 75.3262 365)" class="st3 st4">87</text>
		<text id="text631" transform="matrix(1 0 0 1 274.6611 381)" class="st3 st4">Sg</text>
		<text id="text633" transform="matrix(1 0 0 1 474.3301 381)" class="st3 st4">Rg</text>
		<text id="text635" transform="matrix(1 0 0 1 597.002 381)" class="st3 st4">Fl</text>
		<text id="text637" transform="matrix(1 0 0 1 634.9932 381)" class="st3 st4">Mc</text>
		<text id="text639" transform="matrix(1 0 0 1 114.3301 381)" class="st3 st4">Ra</text>
		<text id="text641" transform="matrix(1 0 0 1 196 381)" class="st3 st4">Rf</text>
		<text id="text643" transform="matrix(1 0 0 1 234.3301 381)" class="st3 st4">Db</text>
		<text id="text645" transform="matrix(1 0 0 1 314.6611 381)" class="st3 st4">Bh</text>
		<text id="text647" transform="matrix(1 0 0 1 354.667 381)" class="st3 st4">Hs</text>
		<text id="text649" transform="matrix(1 0 0 1 395.335 381)" class="st3 st4">Mt</text>
		<text id="text651" transform="matrix(1 0 0 1 434.667 381)" class="st3 st4">Ds</text>
		<text id="text653" transform="matrix(1 0 0 1 514.3301 381)" class="st3 st4">Cn</text>
		<text id="text655" transform="matrix(1 0 0 1 554.6631 381)" class="st3 st4">Nh</text>
		<text id="text657" transform="matrix(1 0 0 1 675.6631 381)" class="st3 st4">Lv</text>
		<text id="text659" transform="matrix(1 0 0 1 715.3301 381)" class="st3 st4">Ts</text>
		<text id="text661" transform="matrix(1 0 0 1 754 381)" class="st3 st4">Og</text>
		<text id="text663" transform="matrix(1 0 0 1 76.3369 381)" class="st3 st4">Fr</text>
		<text id="text665" transform="matrix(1 0 0 1 154.9262 425)" class="st3 st4">57</text>
		<text id="text667" transform="matrix(1 0 0 1 194.9262 425)" class="st3 st4">58</text>
		<text id="text669" transform="matrix(1 0 0 1 234.9262 425)" class="st3 st4">59</text>
		<text id="text671" transform="matrix(1 0 0 1 274.9262 425)" class="st3 st4">60</text>
		<text id="text673" transform="matrix(1 0 0 1 314.9262 425)" class="st3 st4">61</text>
		<text id="text675" transform="matrix(1 0 0 1 354.9262 425)" class="st3 st4">62</text>
		<text id="text677" transform="matrix(1 0 0 1 394.9262 425)" class="st3 st4">63</text>
		<text id="text679" transform="matrix(1 0 0 1 434.9262 425)" class="st3 st4">64</text>
		<text id="text681" transform="matrix(1 0 0 1 474.9262 425)" class="st3 st4">65</text>
		<text id="text683" transform="matrix(1 0 0 1 514.9261 425)" class="st3 st4">66</text>
		<text id="text685" transform="matrix(1 0 0 1 554.9261 425)" class="st3 st4">67</text>
		<text id="text687" transform="matrix(1 0 0 1 594.9261 425)" class="st3 st4">68</text>
		<text id="text689" transform="matrix(1 0 0 1 634.9261 425)" class="st3 st4">69</text>
		<text id="text691" transform="matrix(1 0 0 1 674.9261 425)" class="st3 st4">70</text>
		<text id="text693" transform="matrix(1 0 0 1 714.9261 425)" class="st3 st4">71</text>
		<text id="text695" transform="matrix(1 0 0 1 514.267 441)" class="st3 st4">Dy</text>
		<text id="text697" transform="matrix(1 0 0 1 154.9262 441)" class="st3 st4">La</text>
		<text id="text699" transform="matrix(1 0 0 1 193.9301 441)" class="st3 st4">Ce</text>
		<text id="text701" transform="matrix(1 0 0 1 235.6 441)" class="st3 st4">Pr</text>
		<text id="text703" transform="matrix(1 0 0 1 273.9301 441)" class="st3 st4">Nd</text>
		<text id="text705" transform="matrix(1 0 0 1 312.6 441)" class="st3 st4">Pm</text>
		<text id="text707" transform="matrix(1 0 0 1 352.6 441)" class="st3 st4">Sm</text>
		<text id="text709" transform="matrix(1 0 0 1 394.2611 441)" class="st3 st4">Eu</text>
		<text id="text711" transform="matrix(1 0 0 1 433.5961 441)" class="st3 st4">Gd</text>
		<text id="text713" transform="matrix(1 0 0 1 474.5981 441)" class="st3 st4">Tb</text>
		<text id="text715" transform="matrix(1 0 0 1 553.9301 441)" class="st3 st4">Ho</text>
		<text id="text717" transform="matrix(1 0 0 1 595.6 441)" class="st3 st4">Er</text>
		<text id="text719" transform="matrix(1 0 0 1 632.9369 441)" class="st3 st4">Tm</text>
		<text id="text721" transform="matrix(1 0 0 1 674.2611 441)" class="st3 st4">Yb</text>
		<text id="text723" transform="matrix(1 0 0 1 714.9261 441)" class="st3 st4">Lu</text>
		<text id="text725" transform="matrix(1 0 0 1 154.9262 465)" class="st3 st4">89</text>
		<text id="text727" transform="matrix(1 0 0 1 194.9262 465)" class="st3 st4">90</text>
		<text id="text729" transform="matrix(1 0 0 1 234.9262 465)" class="st3 st4">91</text>
		<text id="text731" transform="matrix(1 0 0 1 274.9262 465)" class="st3 st4">92</text>
		<text id="text733" transform="matrix(1 0 0 1 314.9262 465)" class="st3 st4">93</text>
		<text id="text735" transform="matrix(1 0 0 1 354.9262 465)" class="st3 st4">94</text>
		<text id="text737" transform="matrix(1 0 0 1 394.9262 465)" class="st3 st4">95</text>
		<text id="text739" transform="matrix(1 0 0 1 434.9262 465)" class="st3 st4">96</text>
		<text id="text741" transform="matrix(1 0 0 1 474.9262 465)" class="st3 st4">97</text>
		<text id="text743" transform="matrix(1 0 0 1 514.9261 465)" class="st3 st4">98</text>
		<text id="text745" transform="matrix(1 0 0 1 554.9261 465)" class="st3 st4">99</text>
		<text id="text747" transform="matrix(1 0 0 1 591.5892 465)" class="st3 st4">100</text>
		<text id="text749" transform="matrix(1 0 0 1 631.5892 465)" class="st3 st4">101</text>
		<text id="text751" transform="matrix(1 0 0 1 671.5892 465)" class="st3 st4">102</text>
		<text id="text753" transform="matrix(1 0 0 1 711.5892 465)" class="st3 st4">103</text>
		<text id="text755" transform="matrix(1 0 0 1 154.5981 481)" class="st3 st4">Ac</text>
		<text id="text757" transform="matrix(1 0 0 1 194.5981 481)" class="st3 st4">Th</text>
		<text id="text759" transform="matrix(1 0 0 1 234.2611 481)" class="st3 st4">Pa</text>
		<text id="text761" transform="matrix(1 0 0 1 277.267 481)" class="st3 st4">U</text>
		<text id="text763" transform="matrix(1 0 0 1 313.9301 481)" class="st3 st4">Np</text>
		<text id="text765" transform="matrix(1 0 0 1 354.2611 481)" class="st3 st4">Pu</text>
		<text id="text767" transform="matrix(1 0 0 1 392.6 481)" class="st3 st4">Am</text>
		<text id="text769" transform="matrix(1 0 0 1 432.269 481)" class="st3 st4">Cm</text>
		<text id="text771" transform="matrix(1 0 0 1 474.5981 481)" class="st3 st4">Bk</text>
		<text id="text773" transform="matrix(1 0 0 1 515.6 481)" class="st3 st4">Cf</text>
		<text id="text775" transform="matrix(1 0 0 1 554.598 481)" class="st3 st4">Es</text>
		<text id="text777" transform="matrix(1 0 0 1 592.9369 481)" class="st3 st4">Fm</text>
		<text id="text779" transform="matrix(1 0 0 1 633.265 481)" class="st3 st4">Md</text>
		<text id="text781" transform="matrix(1 0 0 1 673.9301 481)" class="st3 st4">No</text>
		<text id="text783" transform="matrix(1 0 0 1 716.265 481)" class="st3 st4">Lr</text>
		<text id="text785" transform="matrix(1 0 0 1 10 93)" class="st3 st4">Group</text>
		<text id="text787" transform="matrix(1 0 0 1 20 108)" class="st3 st4">Period</text>
		<g id="g789" transform="translate(-40.4,0)">
			<text id="text791" transform="matrix(1 0 0 1 92.7109 434)" class="st3 st5">Lanthanides</text>
			<text id="text793" transform="matrix(1 0 0 1 112.1934 472)" class="st3 st5">Actinides</text>
		</g>
		<path id="path795" d="M11.5,97h1v10h-2l2.5,4l2.5-4h-2V97"/>
		<path id="path797" d="M52,88.5v1h10v-2l4,2.5l-4,2.5v-2H52"/>
	</g>
</g>
</svg>