<svg xmlns="http://www.w3.org/2000/svg" viewBox="0 0 72 72"><g style="opacity:0.49"><path d="M2.07,71.5A1.58,1.58,0,0,1,.5,69.93V2.07A1.58,1.58,0,0,1,2.07.5H69.93A1.58,1.58,0,0,1,71.5,2.07V69.93a1.58,1.58,0,0,1-1.57,1.57Zm33.42-1.85,32-65.07-32,12.28L4.72,4.56Z" style="fill:#b0b0b0"/></g><path d="M69.93,1A1.07,1.07,0,0,1,71,2.07V69.93A1.07,1.07,0,0,1,69.93,71H2.07A1.07,1.07,0,0,1,1,69.93V2.07A1.07,1.07,0,0,1,2.07,1H69.93M35.48,70.8l.92-1.86,31-63,1.12-2.29-2.38.92L35.51,16.32,6.09,4.57,3.73,3.63l1.08,2.3,29.79,63,.88,1.87M69.93,0H2.07A2.07,2.07,0,0,0,0,2.07V69.93A2.07,2.07,0,0,0,2.07,72H69.93A2.07,2.07,0,0,0,72,69.93V2.07A2.07,2.07,0,0,0,69.93,0ZM35.5,17.4l31-11.9-31,63L5.72,5.5,35.5,17.4Z"/></svg>