<svg xmlns="http://www.w3.org/2000/svg" viewBox="0 0 72 72"><g style="opacity:0.49"><path d="M2.07,71.5A1.58,1.58,0,0,1,.5,69.93V2.07A1.58,1.58,0,0,1,2.07.5H69.93A1.58,1.58,0,0,1,71.5,2.07V69.93a1.58,1.58,0,0,1-1.57,1.57Zm65.21-4.06L36.51,2.35l-32,65.07,32-12.28Z" style="fill:#b0b0b0"/></g><path d="M69.93,0V1A1.07,1.07,0,0,1,71,2.07V69.93A1.07,1.07,0,0,1,69.93,71H2.07A1.07,1.07,0,0,1,1,69.93V2.07A1.07,1.07,0,0,1,2.07,1H69.93V0M3.48,68.35l2.38-.92L36.49,55.68,65.91,67.43l2.36.94-1.08-2.3L37.4,3.07,36.52,1.2,35.6,3.06l-31,63L3.48,68.35M69.93,0H2.07A2.07,2.07,0,0,0,0,2.07V69.93A2.07,2.07,0,0,0,2.07,72H69.93A2.07,2.07,0,0,0,72,69.93V2.07A2.07,2.07,0,0,0,69.93,0ZM5.5,66.5l31-63,29.78,63L36.5,54.6,5.5,66.5Z"/></svg>