<?xml version="1.0" encoding="utf-8"?>
<!-- Generator: Adobe Illustrator 24.3.0, SVG Export Plug-In . SVG Version: 6.00 Build 0)  -->
<svg version="1.1" xmlns="http://www.w3.org/2000/svg" xmlns:xlink="http://www.w3.org/1999/xlink" x="0px" y="0px"
	 viewBox="0 0 350 80" style="enable-background:new 0 0 350 80;" xml:space="preserve">
<style type="text/css">
	.st0{display:none;}
	.st1{display:inline;}
	.st2{opacity:0.49;}
	.st3{fill:#FFC615;}
	.st4{filter:url(#Adobe_OpacityMaskFilter);}
	.st5{opacity:0.77;mask:url(#SVGID_1_);fill:#DF00FF;}
	.st6{fill:none;stroke:#000000;}
	.st7{filter:url(#Adobe_OpacityMaskFilter_1_);}
	.st8{opacity:0.77;mask:url(#SVGID_2_);fill:#DF00FF;}
	.st9{filter:url(#Adobe_OpacityMaskFilter_2_);}
	.st10{opacity:0.77;mask:url(#SVGID_3_);fill:#DF00FF;}
	.st11{filter:url(#Adobe_OpacityMaskFilter_3_);}
	.st12{opacity:0.77;mask:url(#SVGID_4_);fill:#DF00FF;}
	.st13{filter:url(#Adobe_OpacityMaskFilter_4_);}
	.st14{opacity:0.77;mask:url(#SVGID_5_);fill:#DF00FF;}
	.st15{filter:url(#Adobe_OpacityMaskFilter_5_);}
	.st16{opacity:0.77;mask:url(#SVGID_6_);fill:#DF00FF;}
	.st17{filter:url(#Adobe_OpacityMaskFilter_6_);}
	.st18{opacity:0.77;mask:url(#SVGID_7_);fill:#DF00FF;}
	.st19{fill:#FF00AA;}
	.st20{font-family:'FranklinGothic-DemiItalic';}
	.st21{font-size:24px;}
</style>
<g id="Style1" class="st0">
	<g id="Background" class="st1">
	</g>
	<g id="Letters" class="st1">
		<g>
			<polygon points="38.5,10 39.3,62 37.7,61.7 41.6,51.6 43.4,52.4 39.3,62.3 37.6,66.3 37.7,62 			"/>
		</g>
		<g>
			<polygon points="63.5,10 64.3,62 64.4,66.3 62.7,62.3 58.6,52.4 60.4,51.6 64.3,61.7 62.7,62 			"/>
		</g>
		<g>
			<polygon points="168.5,13.7 151.1,65.5 149.7,69.7 149.5,65.2 149,54.2 151,54.1 151.2,65.2 149.6,64.9 			"/>
		</g>
		<g>
			<polygon points="109.5,66 108.7,16 110.2,16.4 104.9,26.1 103.1,25.1 108.8,15.6 110.4,12.9 110.3,16 			"/>
		</g>
		<g>
			<polygon points="73.9,10.2 94.2,62.2 92.7,62.6 90.7,48.5 92.7,48.3 94.3,62.4 95.1,69.2 92.8,62.8 			"/>
		</g>
		<g>
			<polygon points="200,10 200.8,65 200.9,69.6 199.2,65.3 195.1,54.8 196.9,54.1 200.8,64.8 199.2,65 			"/>
		</g>
		<g>
			<polygon points="234,65 232.7,11 232.6,6.3 234.3,10.7 238.4,21.4 236.6,22.1 232.7,11.2 234.3,10.9 			"/>
		</g>
		<g>
			<polygon points="229.6,9 205.7,62.2 203.8,66.4 204.1,61.8 205,49 207,49.2 205.8,61.9 204.2,61.5 			"/>
		</g>
		<g>
			<polygon points="22,7.5 55,6.7 54.6,8.2 48.1,4.3 49.2,2.7 55.4,6.8 57.8,8.4 55,8.3 			"/>
		</g>
		<g>
			<polygon points="66,35.5 90,34.7 89.5,36.1 84.7,32.3 86,30.7 90.5,34.9 92.1,36.4 90,36.3 			"/>
		</g>
		<g>
			<polygon points="291.5,13 292.3,65 292.4,69.3 290.7,65.3 286.6,55.4 288.4,54.6 292.3,64.7 290.7,65 			"/>
		</g>
		<g>
			<polygon points="301.9,13.2 322.2,65.2 320.7,65.6 318.7,51.5 320.7,51.3 322.3,65.4 323.1,72.2 320.8,65.8 			"/>
		</g>
		<g>
			<polygon points="294,38.5 319,37.7 318.5,39.1 313.6,35.3 314.8,33.7 319.5,37.9 321.2,39.4 319,39.3 			"/>
		</g>
		<g>
			<polygon points="272,66 246,66.8 246.4,65.3 253.4,69.1 252.4,70.9 245.6,66.7 243.2,65.2 246,65.2 			"/>
		</g>
		<g>
			<polygon points="109,10.5 142,9.7 141.6,11.2 135.1,7.3 136.2,5.7 142.4,9.8 144.8,11.4 142,11.3 			"/>
		</g>
		<g>
			<polygon points="112,33.5 137,32.7 136.5,34.1 131.4,30.3 132.6,28.7 137.5,32.9 139.2,34.4 137,34.3 			"/>
		</g>
		<g>
			<polygon points="135,66.5 114,67.3 114.5,65.9 119.4,69.7 118.2,71.3 113.5,67.1 111.9,65.7 114,65.7 			"/>
		</g>
		<g>
			<polygon points="138.5,36 139.3,67 137.8,66.5 141.7,60.5 143.3,61.6 139.2,67.5 137.6,69.6 137.7,67 			"/>
		</g>
		<g>
			<polygon points="189.3,65.9 169.2,9.3 167.5,4.4 170.6,8.5 178.5,18.7 176.9,19.9 169.3,9.5 170.7,8.7 			"/>
		</g>
		<g>
			<polygon points="247.5,62 246.7,13 246.6,9.2 248.2,12.6 252.9,22.4 251.1,23.2 246.8,13.3 248.3,13 			"/>
		</g>
		<g>
			<polygon points="275,12.5 275.9,76.5 274.2,76 278.6,68.7 280.4,69.8 275.8,77 274.1,79.6 274.1,76.5 			"/>
		</g>
	</g>
</g>
<g id="Style2">
	<g>
		<g>
			<g class="st2">
				<path class="st3" d="M66.6,17.5H53.9l-6.9,41H35.3l6.9-41H29.4L31,7.8h37.2L66.6,17.5z"/>
				<defs>
					<filter id="Adobe_OpacityMaskFilter" filterUnits="userSpaceOnUse" x="29.4" y="7.8" width="38.8" height="50.7">
						
							<feColorMatrix  type="matrix" values="-1 0 0 0 1  0 -1 0 0 1  0 0 -1 0 1  0 0 0 1 0" color-interpolation-filters="sRGB" result="source"/>
					</filter>
				</defs>
				<mask maskUnits="userSpaceOnUse" x="29.4" y="7.8" width="38.8" height="50.7" id="SVGID_1_">
					<g class="st4">
						<image style="overflow:visible;" width="44" height="56" xlink:href="9C52B818.jpg"  transform="matrix(1 0 0 1 27 5)">
						</image>
					</g>
				</mask>
				<path class="st5" d="M66.6,17.5H53.9l-6.9,41H35.3l6.9-41H29.4L31,7.8h37.2L66.6,17.5z"/>
			</g>
			<path class="st6" d="M66.6,17.5H53.9l-6.9,41H35.3l6.9-41H29.4L31,7.8h37.2L66.6,17.5z"/>
		</g>
		<g>
			<g class="st2">
				<path class="st3" d="M103.5,58.5H91.4l-1.6-11.1h-17l-4.9,11.1h-11L81.1,7.8h13.9L103.5,58.5z M76.6,38.5h11.8l-3-20.3
					L76.6,38.5z"/>
				<defs>
					<filter id="Adobe_OpacityMaskFilter_1_" filterUnits="userSpaceOnUse" x="56.9" y="7.8" width="46.5" height="50.7">
						
							<feColorMatrix  type="matrix" values="-1 0 0 0 1  0 -1 0 0 1  0 0 -1 0 1  0 0 0 1 0" color-interpolation-filters="sRGB" result="source"/>
					</filter>
				</defs>
				<mask maskUnits="userSpaceOnUse" x="56.9" y="7.8" width="46.5" height="50.7" id="SVGID_2_">
					<g class="st7">
						<image style="overflow:visible;" width="52" height="56" xlink:href="9C52B819.jpg"  transform="matrix(1 0 0 1 54 5)">
						</image>
					</g>
				</mask>
				<path class="st8" d="M103.5,58.5H91.4l-1.6-11.1h-17l-4.9,11.1h-11L81.1,7.8h13.9L103.5,58.5z M76.6,38.5h11.8l-3-20.3
					L76.6,38.5z"/>
			</g>
			<path class="st6" d="M103.5,58.5H91.4l-1.6-11.1h-17l-4.9,11.1h-11L81.1,7.8h13.9L103.5,58.5z M76.6,38.5h11.8l-3-20.3L76.6,38.5
				z"/>
		</g>
		<g>
			<g class="st2">
				<path class="st3" d="M107.7,58.5l8.5-50.7h33.4l-1.5,8.8h-22.2l-1.9,11.5h7.2c4.2,0,7.6,0.3,10.1,1c2.5,0.7,4.5,2,6,4
					c1.5,2,2.3,4.6,2.3,7.7c0,2.9-0.7,5.9-2,8.9c-1.3,3-3.6,5.2-6.8,6.6c-3.2,1.4-6.8,2.2-10.8,2.2H107.7z M120.4,49.2h9.3
					c2.5,0,4.5-0.7,5.8-2s2-3.1,2-5.3c0-3.5-2.6-5.3-7.7-5.3h-7.3L120.4,49.2z"/>
				<defs>
					<filter id="Adobe_OpacityMaskFilter_2_" filterUnits="userSpaceOnUse" x="107.7" y="7.8" width="41.9" height="50.7">
						
							<feColorMatrix  type="matrix" values="-1 0 0 0 1  0 -1 0 0 1  0 0 -1 0 1  0 0 0 1 0" color-interpolation-filters="sRGB" result="source"/>
					</filter>
				</defs>
				<mask maskUnits="userSpaceOnUse" x="107.7" y="7.8" width="41.9" height="50.7" id="SVGID_3_">
					<g class="st9">
						<image style="overflow:visible;" width="47" height="56" xlink:href="9C52B81F.jpg"  transform="matrix(1 0 0 1 105 5)">
						</image>
					</g>
				</mask>
				<path class="st10" d="M107.7,58.5l8.5-50.7h33.4l-1.5,8.8h-22.2l-1.9,11.5h7.2c4.2,0,7.6,0.3,10.1,1c2.5,0.7,4.5,2,6,4
					c1.5,2,2.3,4.6,2.3,7.7c0,2.9-0.7,5.9-2,8.9c-1.3,3-3.6,5.2-6.8,6.6c-3.2,1.4-6.8,2.2-10.8,2.2H107.7z M120.4,49.2h9.3
					c2.5,0,4.5-0.7,5.8-2s2-3.1,2-5.3c0-3.5-2.6-5.3-7.7-5.3h-7.3L120.4,49.2z"/>
			</g>
			<path class="st6" d="M107.7,58.5l8.5-50.7h33.4l-1.5,8.8h-22.2l-1.9,11.5h7.2c4.2,0,7.6,0.3,10.1,1c2.5,0.7,4.5,2,6,4
				c1.5,2,2.3,4.6,2.3,7.7c0,2.9-0.7,5.9-2,8.9c-1.3,3-3.6,5.2-6.8,6.6c-3.2,1.4-6.8,2.2-10.8,2.2H107.7z M120.4,49.2h9.3
				c2.5,0,4.5-0.7,5.8-2s2-3.1,2-5.3c0-3.5-2.6-5.3-7.7-5.3h-7.3L120.4,49.2z"/>
		</g>
		<g>
			<g class="st2">
				<path class="st3" d="M158,58.5h-10.8l23.1-50.7h14l7,50.7h-12.2l-4.4-40.9L158,58.5z"/>
				<defs>
					<filter id="Adobe_OpacityMaskFilter_3_" filterUnits="userSpaceOnUse" x="147.2" y="7.8" width="44.1" height="50.7">
						
							<feColorMatrix  type="matrix" values="-1 0 0 0 1  0 -1 0 0 1  0 0 -1 0 1  0 0 0 1 0" color-interpolation-filters="sRGB" result="source"/>
					</filter>
				</defs>
				<mask maskUnits="userSpaceOnUse" x="147.2" y="7.8" width="44.1" height="50.7" id="SVGID_4_">
					<g class="st11">
						<image style="overflow:visible;" width="49" height="56" xlink:href="9C52B81A.jpg"  transform="matrix(1 0 0 1 145 5)">
						</image>
					</g>
				</mask>
				<path class="st12" d="M158,58.5h-10.8l23.1-50.7h14l7,50.7h-12.2l-4.4-40.9L158,58.5z"/>
			</g>
			<path class="st6" d="M158,58.5h-10.8l23.1-50.7h14l7,50.7h-12.2l-4.4-40.9L158,58.5z"/>
		</g>
		<g>
			<g class="st2">
				<path class="st3" d="M207.8,54.4l-0.7,4.1H196l8.5-50.7h11.2l-3.5,21c-0.6,3.9-1.5,8-2.4,12.3c2.9-4.8,5.5-8.6,8-11.4l14.9-17.2
					l0.8-4.6h11.2L236,58.5h-11.1l3.7-22.2c0.5-2.8,1.2-6.3,2.2-10.6c-1.9,3.5-4.6,7.4-8.1,11.5L207.8,54.4z"/>
				<defs>
					<filter id="Adobe_OpacityMaskFilter_4_" filterUnits="userSpaceOnUse" x="196" y="7.8" width="48.5" height="50.7">
						
							<feColorMatrix  type="matrix" values="-1 0 0 0 1  0 -1 0 0 1  0 0 -1 0 1  0 0 0 1 0" color-interpolation-filters="sRGB" result="source"/>
					</filter>
				</defs>
				<mask maskUnits="userSpaceOnUse" x="196" y="7.8" width="48.5" height="50.7" id="SVGID_5_">
					<g class="st13">
						<image style="overflow:visible;" width="53" height="56" xlink:href="9C52B81B.jpg"  transform="matrix(1 0 0 1 194 5)">
						</image>
					</g>
				</mask>
				<path class="st14" d="M207.8,54.4l-0.7,4.1H196l8.5-50.7h11.2l-3.5,21c-0.6,3.9-1.5,8-2.4,12.3c2.9-4.8,5.5-8.6,8-11.4
					l14.9-17.2l0.8-4.6h11.2L236,58.5h-11.1l3.7-22.2c0.5-2.8,1.2-6.3,2.2-10.6c-1.9,3.5-4.6,7.4-8.1,11.5L207.8,54.4z"/>
			</g>
			<path class="st6" d="M207.8,54.4l-0.7,4.1H196l8.5-50.7h11.2l-3.5,21c-0.6,3.9-1.5,8-2.4,12.3c2.9-4.8,5.5-8.6,8-11.4l14.9-17.2
				l0.8-4.6h11.2L236,58.5h-11.1l3.7-22.2c0.5-2.8,1.2-6.3,2.2-10.6c-1.9,3.5-4.6,7.4-8.1,11.5L207.8,54.4z"/>
		</g>
		<g>
			<g class="st2">
				<path class="st3" d="M241.5,58.5L250,7.8h11.1l-6.9,41h16.2l6.9-41h11.1l-6.9,41h6.2l-3.4,20.3h-7.5l0.9-10.7H241.5z"/>
				<defs>
					<filter id="Adobe_OpacityMaskFilter_5_" filterUnits="userSpaceOnUse" x="241.5" y="7.8" width="47" height="61.4">
						
							<feColorMatrix  type="matrix" values="-1 0 0 0 1  0 -1 0 0 1  0 0 -1 0 1  0 0 0 1 0" color-interpolation-filters="sRGB" result="source"/>
					</filter>
				</defs>
				<mask maskUnits="userSpaceOnUse" x="241.5" y="7.8" width="47" height="61.4" id="SVGID_6_">
					<g class="st15">
						<image style="overflow:visible;" width="52" height="67" xlink:href="9C52B816.jpg"  transform="matrix(1 0 0 1 239 5)">
						</image>
					</g>
				</mask>
				<path class="st16" d="M241.5,58.5L250,7.8h11.1l-6.9,41h16.2l6.9-41h11.1l-6.9,41h6.2l-3.4,20.3h-7.5l0.9-10.7H241.5z"/>
			</g>
			<path class="st6" d="M241.5,58.5L250,7.8h11.1l-6.9,41h16.2l6.9-41h11.1l-6.9,41h6.2l-3.4,20.3h-7.5l0.9-10.7H241.5z"/>
		</g>
		<g>
			<g class="st2">
				<path class="st3" d="M335.4,58.5h-12.1l-1.6-11.1h-17l-4.9,11.1h-11L313,7.8h13.9L335.4,58.5z M308.5,38.5h11.8l-3-20.3
					L308.5,38.5z"/>
				<defs>
					<filter id="Adobe_OpacityMaskFilter_6_" filterUnits="userSpaceOnUse" x="288.8" y="7.8" width="46.5" height="50.7">
						
							<feColorMatrix  type="matrix" values="-1 0 0 0 1  0 -1 0 0 1  0 0 -1 0 1  0 0 0 1 0" color-interpolation-filters="sRGB" result="source"/>
					</filter>
				</defs>
				<mask maskUnits="userSpaceOnUse" x="288.8" y="7.8" width="46.5" height="50.7" id="SVGID_7_">
					<g class="st17">
						<image style="overflow:visible;" width="52" height="56" xlink:href="9C52B817.jpg"  transform="matrix(1 0 0 1 286 5)">
						</image>
					</g>
				</mask>
				<path class="st18" d="M335.4,58.5h-12.1l-1.6-11.1h-17l-4.9,11.1h-11L313,7.8h13.9L335.4,58.5z M308.5,38.5h11.8l-3-20.3
					L308.5,38.5z"/>
			</g>
			<path class="st6" d="M335.4,58.5h-12.1l-1.6-11.1h-17l-4.9,11.1h-11L313,7.8h13.9L335.4,58.5z M308.5,38.5h11.8l-3-20.3
				L308.5,38.5z"/>
		</g>
	</g>
	<text transform="matrix(1 0 0 1 33.8062 77.564)" class="st19 st20 st21">CHEMICAL SYNTHESIS</text>
</g>
</svg>
