<svg id="a41e6b69-fd74-4470-a33f-00c65f1f5029" data-name="Layer 1" xmlns="http://www.w3.org/2000/svg" viewBox="0 0 282 127.54"><path d="M30.74,20.76c0,2.32-1.41,3.55-3.13,3.55s-3-1.38-3-3.42,1.33-3.53,3.13-3.53S30.74,18.76,30.74,20.76Zm-5.23.11c0,1.44.78,2.73,2.15,2.73s2.16-1.27,2.16-2.8c0-1.34-.7-2.74-2.15-2.74S25.51,19.39,25.51,20.87Z" transform="translate(-11 -3.46)" style="fill:#fff"/><path d="M31.72,23.3a2.31,2.31,0,0,0,1.16.35c.64,0,.94-.32.94-.72s-.25-.65-.9-.89c-.87-.31-1.28-.79-1.28-1.37a1.49,1.49,0,0,1,1.67-1.42,2.42,2.42,0,0,1,1.19.3l-.22.64a1.88,1.88,0,0,0-1-.28c-.52,0-.81.3-.81.66s.29.58.92.82c.84.32,1.27.74,1.27,1.46S34,24.3,32.86,24.3A2.76,2.76,0,0,1,31.5,24Z" transform="translate(-11 -3.46)" style="fill:#fff"/><path d="M39.25,24a3.24,3.24,0,0,1-1.39.28,2.3,2.3,0,0,1-2.41-2.47,2.46,2.46,0,0,1,2.6-2.57,2.94,2.94,0,0,1,1.22.25l-.2.68a2,2,0,0,0-1-.23,1.67,1.67,0,0,0-1.71,1.83A1.66,1.66,0,0,0,38,23.6a2.5,2.5,0,0,0,1.08-.24Z" transform="translate(-11 -3.46)" style="fill:#fff"/><path d="M41.91,18.52h0l-1.13.61-.17-.67L42,17.71h.75V24.2h-.85Z" transform="translate(-11 -3.46)" style="fill:#fff"/><path d="M56,82v20H24V82H56m1-1H23v22H57V81Z" transform="translate(-11 -3.46)" style="fill:#f0f"/><path d="M28.41,92.35c2-4.24,2.67-6.85,5.28-6.85s3.31,2.61,4.59,6.85S40.2,99,42.49,99s2.87-2.43,5.51-6.66" transform="translate(-11 -3.46)" style="fill:none;stroke:#f0f;stroke-miterlimit:10"/><path d="M55,26V46H23V26H55m1-1H22V47H56V25Z" transform="translate(-11 -3.46)" style="fill:#f0f"/><path d="M27.41,36.35c2-4.24,2.67-6.85,5.28-6.85s3.31,2.61,4.59,6.85S39.2,43,41.49,43s2.87-2.43,5.51-6.66" transform="translate(-11 -3.46)" style="fill:none;stroke:#f0f;stroke-miterlimit:10"/><path d="M30.74,74.76c0,2.32-1.41,3.55-3.13,3.55s-3-1.38-3-3.42,1.33-3.53,3.13-3.53S30.74,72.76,30.74,74.76Zm-5.23.11c0,1.44.78,2.73,2.15,2.73s2.16-1.27,2.16-2.8c0-1.34-.7-2.74-2.15-2.74S25.51,73.39,25.51,74.87Z" transform="translate(-11 -3.46)" style="fill:#fff"/><path d="M31.72,77.3a2.31,2.31,0,0,0,1.16.35c.64,0,.94-.32.94-.72s-.25-.65-.9-.89c-.87-.31-1.28-.79-1.28-1.37a1.49,1.49,0,0,1,1.67-1.42,2.42,2.42,0,0,1,1.19.3l-.22.64a1.88,1.88,0,0,0-1-.28c-.52,0-.81.3-.81.66s.29.58.92.82c.84.32,1.27.74,1.27,1.46S34,78.3,32.86,78.3A2.76,2.76,0,0,1,31.5,78Z" transform="translate(-11 -3.46)" style="fill:#fff"/><path d="M39.25,78a3.24,3.24,0,0,1-1.39.28,2.3,2.3,0,0,1-2.41-2.47,2.46,2.46,0,0,1,2.6-2.57,2.94,2.94,0,0,1,1.22.25l-.2.68a2,2,0,0,0-1-.23,1.82,1.82,0,0,0,0,3.64,2.5,2.5,0,0,0,1.08-.24Z" transform="translate(-11 -3.46)" style="fill:#fff"/><path d="M40,78.2v-.54l.69-.67c1.66-1.58,2.41-2.42,2.42-3.4a1.16,1.16,0,0,0-1.29-1.27,2.16,2.16,0,0,0-1.38.56l-.28-.63A2.9,2.9,0,0,1,42,71.6a1.82,1.82,0,0,1,2,1.88c0,1.2-.87,2.17-2.24,3.49l-.52.48v0h2.92v.73Z" transform="translate(-11 -3.46)" style="fill:#fff"/><path d="M157,62.47h3.63v.72h-2.76v2.24h2.55v.72h-2.55v3H157Z" transform="translate(-11 -3.46)" style="fill:#fff"/><path d="M162.54,63a.55.55,0,0,1-1.09,0,.53.53,0,0,1,.55-.54A.52.52,0,0,1,162.54,63Zm-1,6.2V64.36h.88V69.2Z" transform="translate(-11 -3.46)" style="fill:#fff"/><path d="M163.9,62.11h.88V69.2h-.88Z" transform="translate(-11 -3.46)" style="fill:#fff"/><path d="M167.32,63v1.38h1.26V65h-1.26v2.61c0,.6.17.94.66.94a2,2,0,0,0,.51-.06l0,.66a2.15,2.15,0,0,1-.78.12,1.22,1.22,0,0,1-.95-.37,1.79,1.79,0,0,1-.34-1.26V65h-.75v-.67h.75V63.21Z" transform="translate(-11 -3.46)" style="fill:#fff"/><path d="M170,66.94a1.55,1.55,0,0,0,1.66,1.68,3.18,3.18,0,0,0,1.34-.25l.15.63a3.92,3.92,0,0,1-1.61.3,2.25,2.25,0,0,1-2.38-2.44,2.35,2.35,0,0,1,2.27-2.61,2.05,2.05,0,0,1,2,2.28,3.32,3.32,0,0,1,0,.41Zm2.58-.63a1.25,1.25,0,0,0-1.22-1.43A1.46,1.46,0,0,0,170,66.31Z" transform="translate(-11 -3.46)" style="fill:#fff"/><path d="M174.52,65.87c0-.57,0-1.06,0-1.51h.77l0,1h0a1.45,1.45,0,0,1,1.34-1.06,1,1,0,0,1,.25,0v.83a1.32,1.32,0,0,0-.3,0,1.23,1.23,0,0,0-1.18,1.13,2.48,2.48,0,0,0,0,.41V69.2h-.87Z" transform="translate(-11 -3.46)" style="fill:#fff"/><path d="M177.67,68.3a2.31,2.31,0,0,0,1.16.35c.64,0,.94-.32.94-.72s-.25-.65-.9-.89c-.87-.31-1.28-.79-1.28-1.37a1.49,1.49,0,0,1,1.67-1.42,2.42,2.42,0,0,1,1.19.3l-.22.64a1.88,1.88,0,0,0-1-.28c-.52,0-.81.3-.81.66s.29.58.92.82c.84.32,1.27.74,1.27,1.46s-.66,1.45-1.81,1.45a2.76,2.76,0,0,1-1.36-.33Z" transform="translate(-11 -3.46)" style="fill:#fff"/><rect x="145.5" y="69.04" width="37" height="23" style="fill:none;stroke:#f0f;stroke-miterlimit:10"/><polyline points="184.39 73.04 186.5 73.04 186.5 96.04 149.5 96.04 149.5 93.84" style="fill:none;stroke:#f0f;stroke-miterlimit:10"/><path d="M159.5,76.5h12c4,0,4.46,1.4,7.24,4.7s7.78,10.3,7.78,10.3" transform="translate(-11 -3.46)" style="fill:none;stroke:#f0f;stroke-miterlimit:10"/><line x1="49.5" y1="89.04" x2="140.1" y2="89.04" style="fill:none;stroke:#f0f;stroke-miterlimit:10"/><polygon points="136.79 93.13 136.1 92.4 139.72 89.05 136.1 85.69 136.79 84.96 141.18 89.05 136.79 93.13" style="fill:#f0f"/><polyline points="48 34.06 68.34 34.06 68.34 71.04 140.91 71.04" style="fill:none;stroke:#f0f;stroke-miterlimit:10"/><polygon points="137.6 75.13 136.92 74.4 140.53 71.05 136.92 67.69 137.6 66.96 142 71.05 137.6 75.13" style="fill:#f0f"/><polyline points="49.5 81.38 60.5 81.38 60.5 38.45" style="fill:none;stroke:#f0f;stroke-miterlimit:10"/><polyline points="60.5 29.68 60.5 22.22 138.78 22.22" style="fill:none;stroke:#f0f;stroke-miterlimit:10"/><polygon points="135.47 26.31 134.79 25.58 138.4 22.22 134.79 18.86 135.47 18.13 139.87 22.22 135.47 26.31" style="fill:#f0f"/><polyline points="47.5 24.54 55 24.54 55 13.04 138.78 13.04" style="fill:none;stroke:#f0f;stroke-miterlimit:10"/><polygon points="135.47 17.13 134.79 16.4 138.4 13.04 134.79 9.69 135.47 8.96 139.87 13.04 135.47 17.13" style="fill:#f0f"/><path d="M15,41.9" transform="translate(-11 -3.46)" style="fill:none;stroke:#f0f;stroke-miterlimit:10"/><path d="M26.36,56" transform="translate(-11 -3.46)" style="fill:none;stroke:#f0f;stroke-miterlimit:10"/><path d="M16.5,46.5" transform="translate(-11 -3.46)" style="fill:none;stroke:#f0f;stroke-miterlimit:10"/><polyline points="253.51 104.63 253.69 117.95 0.5 117.95 0.5 35.54 8.5 35.54" style="fill:none;stroke:#f0f;stroke-miterlimit:10"/><polygon points="249.47 108 250.21 108.67 253.52 105.01 256.92 108.58 257.65 107.89 253.5 103.54 249.47 108" style="fill:#f0f"/><polyline points="32.68 102.6 32.68 111.37 240.5 111.37 240.5 104.63" style="fill:none;stroke:#f0f;stroke-miterlimit:10"/><polygon points="244.59 107.94 243.86 108.63 240.5 105.01 237.14 108.63 236.41 107.94 240.5 103.54 244.59 107.94" style="fill:#f0f"/><path d="M159.46,10.2l-2.2-6.73h.94l1.05,3.31c.29.91.54,1.73.72,2.52h0c.19-.78.47-1.63.77-2.51l1.14-3.32h.93l-2.41,6.73Z" transform="translate(-11 -3.46)" style="fill:#fff"/><path d="M167.58,7.74a2.37,2.37,0,0,1-2.41,2.57,2.3,2.3,0,0,1-2.32-2.49,2.36,2.36,0,0,1,2.4-2.57A2.29,2.29,0,0,1,167.58,7.74Zm-3.84,0c0,1.06.61,1.86,1.47,1.86s1.47-.79,1.47-1.88c0-.82-.41-1.86-1.45-1.86S163.74,6.87,163.74,7.79Z" transform="translate(-11 -3.46)" style="fill:#fff"/><path d="M169.67,4a.55.55,0,0,1-1.09,0,.53.53,0,0,1,.55-.54A.52.52,0,0,1,169.67,4Zm-1,6.2V5.36h.88V10.2Z" transform="translate(-11 -3.46)" style="fill:#fff"/><path d="M174.48,10a3.24,3.24,0,0,1-1.39.28,2.3,2.3,0,0,1-2.41-2.47,2.46,2.46,0,0,1,2.6-2.57,2.94,2.94,0,0,1,1.22.25l-.2.68a2,2,0,0,0-1-.23,1.67,1.67,0,0,0-1.71,1.83,1.66,1.66,0,0,0,1.68,1.81,2.5,2.5,0,0,0,1.08-.24Z" transform="translate(-11 -3.46)" style="fill:#fff"/><path d="M175.94,7.94a1.55,1.55,0,0,0,1.66,1.68,3.18,3.18,0,0,0,1.34-.25l.15.63a3.92,3.92,0,0,1-1.61.3,2.25,2.25,0,0,1-2.38-2.44,2.35,2.35,0,0,1,2.27-2.61,2.05,2.05,0,0,1,2,2.28,3.32,3.32,0,0,1,0,.41Zm2.58-.63a1.25,1.25,0,0,0-1.22-1.43A1.46,1.46,0,0,0,176,7.31Z" transform="translate(-11 -3.46)" style="fill:#fff"/><path d="M182.61,3.47h3.63v.72h-2.76V6.43H186v.72h-2.55v3h-.87Z" transform="translate(-11 -3.46)" style="fill:#fff"/><path d="M191.17,10.2l-.86-1.49c-.35-.57-.57-.94-.78-1.33h0c-.19.39-.38.75-.73,1.34L188,10.2h-1L189,6.79l-2-3.32h1L189,5c.25.44.44.78.62,1.14h0c.19-.4.36-.71.61-1.14l.92-1.57h1l-2,3.27,2.1,3.46Z" transform="translate(-11 -3.46)" style="fill:#fff"/><rect x="145.5" y="10.54" width="41" height="36.5" style="fill:none;stroke:#f0f;stroke-miterlimit:10"/><rect x="149.5" y="14.68" width="33" height="6.89" style="fill:none;stroke:#f0f;stroke-miterlimit:10"/><rect x="149.5" y="25.7" width="33" height="6.89" style="fill:none;stroke:#f0f;stroke-miterlimit:10"/><rect x="149.5" y="36.71" width="33" height="6.89" style="fill:none;stroke:#f0f;stroke-miterlimit:10"/><path d="M244.66,17.24c0-.94-.11-2.07-.1-2.91h0c-.23.79-.51,1.63-.85,2.56l-1.19,3.27h-.66L240.74,17c-.32-.95-.59-1.82-.78-2.62h0c0,.84-.07,2-.13,3l-.18,2.89h-.83l.47-6.73h1.11l1.15,3.25c.28.83.51,1.57.68,2.27h0c.17-.68.41-1.42.71-2.27l1.2-3.25h1.11l.42,6.73h-.85Z" transform="translate(-11 -3.46)" style="fill:#fff"/><path d="M249.73,20.2l-.07-.61h0a1.8,1.8,0,0,1-1.48.72,1.38,1.38,0,0,1-1.48-1.39c0-1.17,1-1.81,2.91-1.8V17a1,1,0,0,0-1.1-1.12,2.41,2.41,0,0,0-1.26.36l-.2-.58a3,3,0,0,1,1.59-.43c1.48,0,1.84,1,1.84,2V19a6.81,6.81,0,0,0,.08,1.16Zm-.13-2.47c-1,0-2,.15-2,1.09a.78.78,0,0,0,.83.84,1.2,1.2,0,0,0,1.17-.81.92.92,0,0,0,0-.28Z" transform="translate(-11 -3.46)" style="fill:#fff"/><path d="M251.75,19.3a2.31,2.31,0,0,0,1.16.35c.64,0,.94-.32.94-.72s-.25-.65-.9-.89c-.87-.31-1.28-.79-1.28-1.37a1.49,1.49,0,0,1,1.67-1.42,2.42,2.42,0,0,1,1.19.3l-.22.64a1.88,1.88,0,0,0-1-.28c-.52,0-.81.3-.81.66s.29.58.92.82c.84.32,1.27.74,1.27,1.46s-.66,1.45-1.81,1.45a2.76,2.76,0,0,1-1.36-.33Z" transform="translate(-11 -3.46)" style="fill:#fff"/><path d="M256.89,14v1.38h1.26V16h-1.26v2.61c0,.6.17.94.66.94a2,2,0,0,0,.51-.06l0,.66a2.15,2.15,0,0,1-.78.12,1.22,1.22,0,0,1-.95-.37,1.79,1.79,0,0,1-.34-1.26V16h-.75v-.67H256V14.21Z" transform="translate(-11 -3.46)" style="fill:#fff"/><path d="M259.57,17.94a1.55,1.55,0,0,0,1.66,1.68,3.18,3.18,0,0,0,1.34-.25l.15.63a3.92,3.92,0,0,1-1.61.3,2.25,2.25,0,0,1-2.38-2.44A2.35,2.35,0,0,1,261,15.25a2.05,2.05,0,0,1,2,2.28,3.32,3.32,0,0,1,0,.41Zm2.58-.63a1.25,1.25,0,0,0-1.22-1.43,1.46,1.46,0,0,0-1.35,1.43Z" transform="translate(-11 -3.46)" style="fill:#fff"/><path d="M264.09,16.87c0-.57,0-1.06,0-1.51h.77l0,.95h0a1.45,1.45,0,0,1,1.34-1.06,1,1,0,0,1,.25,0v.83a1.32,1.32,0,0,0-.3,0A1.23,1.23,0,0,0,265,17.21a2.48,2.48,0,0,0,0,.41V20.2h-.87Z" transform="translate(-11 -3.46)" style="fill:#fff"/><path d="M269.51,13.47h3.63v.72h-2.76v2.24h2.55v.72h-2.55V20.2h-.87Z" transform="translate(-11 -3.46)" style="fill:#fff"/><path d="M278.07,20.2l-.86-1.49c-.35-.57-.57-.94-.78-1.33h0c-.19.39-.38.75-.73,1.34l-.81,1.48h-1l2.06-3.41-2-3.32h1l.89,1.57c.25.44.44.78.62,1.14h0c.19-.4.36-.71.61-1.14l.92-1.57h1l-2,3.27,2.1,3.46Z" transform="translate(-11 -3.46)" style="fill:#fff"/><rect x="227.5" y="20.04" width="41" height="53" style="fill:none;stroke:#f0f;stroke-miterlimit:10"/><rect x="231.5" y="26.04" width="33" height="10" style="fill:none;stroke:#f0f;stroke-miterlimit:10"/><rect x="231.5" y="42.04" width="33" height="10" style="fill:none;stroke:#f0f;stroke-miterlimit:10"/><rect x="231.5" y="58.04" width="33" height="10" style="fill:none;stroke:#f0f;stroke-miterlimit:10"/><path d="M200.7,107.5" transform="translate(-11 -3.46)" style="fill:none;stroke:#f0f;stroke-miterlimit:10"/><line x1="230.42" y1="96.04" x2="189.7" y2="96.04" style="fill:none;stroke:#f0f;stroke-miterlimit:10"/><polygon points="227.1 91.95 226.42 92.69 230.03 96.04 226.42 99.4 227.1 100.13 231.5 96.04 227.1 91.95" style="fill:#f0f"/><circle cx="247" cy="92.38" r="8" style="fill:none;stroke:#f0f;stroke-miterlimit:10"/><line x1="247" y1="88.17" x2="247" y2="96.59" style="fill:none;stroke:#f0f;stroke-miterlimit:10"/><line x1="251.21" y1="92.38" x2="242.79" y2="92.38" style="fill:none;stroke:#f0f;stroke-miterlimit:10"/><line x1="246.5" y1="82.04" x2="246.5" y2="76.13" style="fill:none;stroke:#f0f;stroke-miterlimit:10"/><polygon points="250.59 79.44 249.86 80.13 246.5 76.51 243.14 80.13 242.41 79.44 246.5 75.04 250.59 79.44" style="fill:#f0f"/><line x1="272" y1="28.04" x2="280.92" y2="28.04" style="fill:none;stroke:#f0f;stroke-miterlimit:10"/><polygon points="277.6 32.13 276.92 31.4 280.53 28.05 276.92 24.69 277.6 23.96 282 28.05 277.6 32.13" style="fill:#f0f"/><line x1="98.5" y1="102.04" x2="98.5" y2="107.04" style="fill:none;stroke:#fff;stroke-miterlimit:10;stroke-width:0.5px"/><polygon points="96.01 106.31 98.5 110.63 100.99 106.31 96.01 106.31" style="fill:#fff"/><line x1="104.5" y1="3.54" x2="104.5" y2="8.54" style="fill:none;stroke:#fff;stroke-miterlimit:10;stroke-width:0.5px"/><polygon points="102.01 7.82 104.5 12.13 106.99 7.82 102.01 7.82" style="fill:#fff"/><line x1="104.5" y1="31.54" x2="104.5" y2="26.54" style="fill:none;stroke:#fff;stroke-miterlimit:10;stroke-width:0.5px"/><polygon points="106.99 27.27 104.5 22.96 102.01 27.27 106.99 27.27" style="fill:#fff"/><line x1="98.5" y1="127.54" x2="98.5" y2="122.54" style="fill:none;stroke:#fff;stroke-miterlimit:10;stroke-width:0.5px"/><polygon points="100.99 123.27 98.5 118.96 96.01 123.27 100.99 123.27" style="fill:#fff"/><polyline points="189.7 26.54 200.23 26.54 200.23 86.04 230.91 86.04" style="fill:none;stroke:#f0f;stroke-miterlimit:10"/><polygon points="227.6 90.13 226.92 89.4 230.53 86.05 226.92 82.69 227.6 81.96 232 86.05 227.6 90.13" style="fill:#f0f"/></svg>